<?xml version="1.0" encoding="utf-8"?>
<!-- Generator: Adobe Illustrator 21.0.0, SVG Export Plug-In . SVG Version: 6.00 Build 0)  -->
<svg version="1.1" xmlns="http://www.w3.org/2000/svg" xmlns:xlink="http://www.w3.org/1999/xlink" x="0px" y="0px"
	 viewBox="0 0 32 32" enable-background="new 0 0 32 32" xml:space="preserve">
<g id="Layer_1">
</g>
<g id="Layer_2">
	<path fill="none" stroke="#000000" stroke-width="1.5" stroke-linejoin="round" stroke-miterlimit="10" d="M9.104,6.06L9.104,6.06
		L9.104,6.06L3.787,0.889C3.121,1.566,2.709,2.501,2.709,3.533c0,2.065,1.648,3.739,3.681,3.739c0.227,0,0.445-0.032,0.661-0.071
		L7.047,7.204l4.434,4.154l1.423-1.594L9.104,6.06z"/>
	<circle cx="15.946" cy="14.193" r="0.709"/>
	<path fill="none" stroke="#000000" stroke-width="1.5" stroke-linejoin="round" stroke-miterlimit="10" d="M29.369,2.046
		c-0.677-0.666-1.612-1.078-2.644-1.078c-2.065,0-3.739,1.648-3.739,3.681c0,0.227,0.032,0.445,0.071,0.661l-0.002-0.004L18.9,9.739
		l1.594,1.423l3.704-3.8l0,0l0,0L29.369,2.046z"/>
	<path fill="none" stroke="#000000" stroke-width="1.5" stroke-linejoin="round" stroke-miterlimit="10" d="M8.945,23.212
		l4.154-4.434l-1.594-1.423l-3.705,3.8l-5.171,5.316c0.677,0.666,1.612,1.078,2.644,1.078c2.065,0,3.739-1.648,3.739-3.681
		c0-0.227-0.032-0.446-0.071-0.661L8.945,23.212z"/>
	<path fill="none" stroke="#000000" stroke-width="1.5" stroke-linejoin="round" stroke-miterlimit="10" d="M25.61,21.244
		c-0.227,0-0.445,0.032-0.661,0.071l0.004-0.002l-4.434-4.154l-1.423,1.594l3.8,3.704l0.001,0l0,0l5.316,5.171
		c0.666-0.677,1.078-1.612,1.078-2.644C29.291,22.918,27.643,21.244,25.61,21.244z"/>
	<line fill="none" stroke="#000000" stroke-width="1.5" stroke-miterlimit="10" x1="17.788" y1="31.111" x2="17.788" y2="17.847"/>
	<line fill="none" stroke="#000000" stroke-width="1.5" stroke-miterlimit="10" x1="11.897" y1="31.111" x2="20.775" y2="31.111"/>
	<line fill="none" stroke="#000000" stroke-width="1.5" stroke-miterlimit="10" x1="14.958" y1="22.393" x2="14.958" y2="31.111"/>
	<path fill="none" stroke="#000000" stroke-width="1.5" stroke-linejoin="round" stroke-miterlimit="10" d="M18.819,14.193
		c0-0.296-0.045-0.582-0.128-0.851l2.085-1.929L18.66,9.525l-2.016,1.866l0.022,0.021c-0.23-0.059-0.471-0.091-0.72-0.091
		c-0.331,0-0.648,0.057-0.944,0.159l0.001-0.001l-1.848-1.997l-1.889,2.116l1.866,2.016c-0.038,0.187-0.058,0.381-0.058,0.579
		c0,0.363,0.068,0.71,0.191,1.03l-2.04,1.879l2.116,1.889l2.097-1.972c0.165,0.03,0.335,0.046,0.509,0.046
		c0.348,0,0.681-0.062,0.99-0.175l1.909,2.143l1.889-2.116l-1.975-2.141C18.798,14.589,18.819,14.394,18.819,14.193z"/>
</g>
</svg>
