<?xml version="1.0" encoding="utf-8"?>
<!-- Generator: Adobe Illustrator 21.0.0, SVG Export Plug-In . SVG Version: 6.00 Build 0)  -->
<svg version="1.1" xmlns="http://www.w3.org/2000/svg" xmlns:xlink="http://www.w3.org/1999/xlink" x="0px" y="0px"
	 viewBox="0 0 32 32" enable-background="new 0 0 32 32" xml:space="preserve">
<g id="Layer_1">
</g>
<g id="Layer_2">
	<path fill="none" stroke="#000000" stroke-width="1.5" stroke-miterlimit="10" d="M26.448,5.087
		c2.868,2.749,4.654,6.618,4.654,10.904c0,8.34-6.761,15.102-15.102,15.102S0.898,24.331,0.898,15.991S7.66,0.889,16,0.889
		c2.597,0,5.041,0.656,7.176,1.81"/>
	<circle fill="none" stroke="#000000" stroke-miterlimit="10" cx="16" cy="15.991" r="6.647"/>
	<circle fill="none" stroke="#000000" stroke-width="1.5" stroke-miterlimit="10" cx="16" cy="15.991" r="9.303"/>
	<line fill="none" stroke="#000000" stroke-width="1.5" stroke-miterlimit="10" x1="29.74" y1="9.726" x2="24.436" y2="12.144"/>
	<line fill="none" stroke="#000000" stroke-width="1.5" stroke-miterlimit="10" x1="29.739" y1="22.255" x2="24.461" y2="19.849"/>
	<line fill="none" stroke="#000000" stroke-width="1.5" stroke-miterlimit="10" x1="22.266" y1="29.732" x2="19.858" y2="24.453"/>
	<line fill="none" stroke="#000000" stroke-width="1.5" stroke-miterlimit="10" x1="9.735" y1="29.73" x2="12.142" y2="24.452"/>
	<line fill="none" stroke="#000000" stroke-width="1.5" stroke-miterlimit="10" x1="2.26" y1="22.256" x2="7.538" y2="19.849"/>
	<line fill="none" stroke="#000000" stroke-width="1.5" stroke-miterlimit="10" x1="2.261" y1="9.726" x2="7.508" y2="12.119"/>
</g>
</svg>
