<?xml version="1.0" encoding="UTF-8" standalone="no"?>
<svg
   xmlns:dc="http://purl.org/dc/elements/1.1/"
   xmlns:cc="http://creativecommons.org/ns#"
   xmlns:rdf="http://www.w3.org/1999/02/22-rdf-syntax-ns#"
   xmlns:svg="http://www.w3.org/2000/svg"
   xmlns="http://www.w3.org/2000/svg"
   xmlns:sodipodi="http://sodipodi.sourceforge.net/DTD/sodipodi-0.dtd"
   xmlns:inkscape="http://www.inkscape.org/namespaces/inkscape"
   inkscape:version="1.0 (4035a4fb49, 2020-05-01)"
   sodipodi:docname="learnmode.svg"
   id="svg22"
   xml:space="preserve"
   enable-background="new 0 0 32 32"
   viewBox="0 0 32 32"
   y="0px"
   x="0px"
   version="1.1"><metadata
   id="metadata28"><rdf:RDF><cc:Work
       rdf:about=""><dc:format>image/svg+xml</dc:format><dc:type
         rdf:resource="http://purl.org/dc/dcmitype/StillImage" /><dc:title></dc:title></cc:Work></rdf:RDF></metadata><defs
   id="defs26" /><sodipodi:namedview
   inkscape:current-layer="svg22"
   inkscape:window-maximized="1"
   inkscape:window-y="-8"
   inkscape:window-x="-8"
   inkscape:cy="16"
   inkscape:cx="16"
   inkscape:zoom="26.875"
   showgrid="false"
   id="namedview24"
   inkscape:window-height="997"
   inkscape:window-width="1680"
   inkscape:pageshadow="2"
   inkscape:pageopacity="0"
   guidetolerance="10"
   gridtolerance="10"
   objecttolerance="10"
   borderopacity="1"
   bordercolor="#666666"
   pagecolor="#ffffff" />
<g
   id="Layer_1">
</g>
<g
   id="Layer_2">
	<path
   id="path3"
   d="M26.448,5.087   c2.868,2.749,4.654,6.618,4.654,10.904c0,8.34-6.761,15.102-15.102,15.102S0.898,24.331,0.898,15.991S7.66,0.889,16,0.889   c2.597,0,5.041,0.656,7.176,1.81"
   stroke-miterlimit="10"
   stroke-width="1.5"
   stroke="#000000"
   fill="none" />
	<circle
   id="circle5"
   r="6.647"
   cy="15.991"
   cx="16"
   stroke-miterlimit="10"
   stroke="#000000"
   fill="none" />
	<circle
   id="circle7"
   r="9.303"
   cy="15.991"
   cx="16"
   stroke-miterlimit="10"
   stroke-width="1.5"
   stroke="#000000"
   fill="none" />
	<line
   id="line9"
   y2="12.144"
   x2="24.436"
   y1="9.726"
   x1="29.74"
   stroke-miterlimit="10"
   stroke-width="1.5"
   stroke="#000000"
   fill="none" />
	<line
   id="line11"
   y2="19.849"
   x2="24.461"
   y1="22.255"
   x1="29.739"
   stroke-miterlimit="10"
   stroke-width="1.5"
   stroke="#000000"
   fill="none" />
	<line
   id="line13"
   y2="24.453"
   x2="19.858"
   y1="29.732"
   x1="22.266"
   stroke-miterlimit="10"
   stroke-width="1.5"
   stroke="#000000"
   fill="none" />
	<line
   id="line15"
   y2="24.452"
   x2="12.142"
   y1="29.73"
   x1="9.735"
   stroke-miterlimit="10"
   stroke-width="1.5"
   stroke="#000000"
   fill="none" />
	<line
   id="line17"
   y2="19.849"
   x2="7.538"
   y1="22.256"
   x1="2.26"
   stroke-miterlimit="10"
   stroke-width="1.5"
   stroke="#000000"
   fill="none" />
	<line
   id="line19"
   y2="12.119"
   x2="7.508"
   y1="9.726"
   x1="2.261"
   stroke-miterlimit="10"
   stroke-width="1.5"
   stroke="#000000"
   fill="none" />
</g>
<path
   id="path30"
   d="m 15.144186,30.300953 c -1.465778,-0.119346 -2.542921,-0.333024 -3.757219,-0.745337 -0.326936,-0.11101 -0.600077,-0.207486 -0.606981,-0.21439 -0.01006,-0.01006 1.729003,-3.855773 1.752854,-3.876208 0.0037,-0.0032 0.180386,0.05066 0.392676,0.119598 0.446607,0.145021 1.040028,0.282779 1.623321,0.37684 0.585798,0.09447 2.316528,0.09447 2.902326,0 0.583293,-0.09406 1.176713,-0.231819 1.623321,-0.37684 0.21229,-0.06893 0.389498,-0.122249 0.393795,-0.118478 0.01378,0.01208 1.759628,3.849575 1.759628,3.867769 0,0.0096 -0.330698,0.126523 -0.734884,0.259766 -1.507395,0.496926 -3.050738,0.741229 -4.584182,0.725654 -0.3387,-0.0034 -0.682794,-0.01171 -0.764655,-0.01837 z"
   style="fill:#0000ff;stroke:#000000;stroke-width:0.0372093" /></svg>
