<?xml version="1.0" encoding="utf-8"?>
<!-- Generator: Adobe Illustrator 21.0.0, SVG Export Plug-In . SVG Version: 6.00 Build 0)  -->
<svg version="1.1" xmlns="http://www.w3.org/2000/svg" xmlns:xlink="http://www.w3.org/1999/xlink" x="0px" y="0px"
	 viewBox="0 0 32 32" enable-background="new 0 0 32 32" xml:space="preserve">
<g id="Layer_1">
</g>
<g id="Layer_2">
	<g>
		<path fill="none" stroke="#000000" stroke-width="1.5" stroke-miterlimit="10" d="M9.569,17.649c0-0.794,0.65-1.444,1.444-1.444
			h0.028c0.794,0,1.444,0.65,1.444,1.444v5.434c0,0.794-0.65,1.444-1.444,1.444h-0.028c-0.794,0-1.444-0.65-1.444-1.444V17.649z"/>
		<path fill="none" stroke="#000000" stroke-width="1.5" stroke-miterlimit="10" d="M14.826,22.366v5.87
			c0,1.589,1.3,2.888,2.888,2.888h1.954c1.589,0,2.888-1.3,2.888-2.888V3.791c0-1.589-1.3-2.888-2.888-2.888h-1.954
			c-1.589,0-2.888,1.3-2.888,2.888v14.575"/>
	</g>
</g>
</svg>
