<?xml version="1.0" encoding="UTF-8" standalone="no"?>
<svg
   xmlns:dc="http://purl.org/dc/elements/1.1/"
   xmlns:cc="http://creativecommons.org/ns#"
   xmlns:rdf="http://www.w3.org/1999/02/22-rdf-syntax-ns#"
   xmlns:svg="http://www.w3.org/2000/svg"
   xmlns="http://www.w3.org/2000/svg"
   id="svg9"
   viewBox="0 0 960 960"
   version="1.1"
   height="960px"
   width="960px">
  <metadata
     id="metadata15">
    <rdf:RDF>
      <cc:Work
         rdf:about="">
        <dc:format>image/svg+xml</dc:format>
        <dc:type
           rdf:resource="http://purl.org/dc/dcmitype/StillImage" />
        <dc:title></dc:title>
      </cc:Work>
    </rdf:RDF>
  </metadata>
  <defs
     id="defs13" />
  <style
     id="style2"
     type="text/css">
  #pair-button {
  animation: press 4s infinite;
  }

  @keyframes press {
  0%, 20%, 100% {
  fill: rgba(0,0,0,0);
  }
  5%, 10%, 15% {
  fill: #0078CC;
  }
  }
 </style>
  <g
     fill-rule="evenodd"
     id="com.popp/drivers/thermostat">
    <path
       d="m155.73 282.81c3.6084 0 64.015 11.847 181.22 35.541 2.6761-8.3816 11.675-18.257 26.996-29.626 11.77-8.7345 27.08-20.226 60.046-28.949 6.6295-1.7542 19.891-3.4639 39.784-5.1292l-173.72-40.296c-18.354 1.0114-30.976 2.2101-37.865 3.5961-36.874 7.4179-58.31 19.501-72.74 32.214-25.136 22.146-26.136 32.649-23.718 32.649z"
       id="pair-button" />
    <path
       fill-rule="nonzero"
       d="m289.81 181.35 0.41531 0.021365 0.57255 0.038194 0.78651 0.075716 0.75707 0.091272 0.86654 0.11986 1.4275 0.22114 0.94302 0.15692 2.5102 0.44302 2.0087 0.37089 4.0291 0.76733 9.1269 1.7887 28.182 5.6252 39.728 8.0259 86.129 17.55 49.821 10.197 86.478 17.742 82.832 17.028 107.1 22.05 1.2236 0.21644c3.2375 0.5873 6.4631 1.2656 9.6747 2.0348l1.6047 0.39221c113.09 28.197 175.7 160.35 142.38 294.01-32.95 132.16-148.14 219.2-260.32 193.58l-2.5432-0.60637-463.88-76.468c-0.966-0.15924-1.9187-0.38915-2.8506-0.68777l-0.55653-0.1874c-57.494-20.304-105.66-64.637-134.77-122.93l-0.2665-0.53706-1.2676-0.35308c-39.174-11.023-63.967-28.144-72.541-53.375l-0.2768-0.83473c-11.421-35.314-13.349-89.515 0.2768-156.97 6.3821-31.593 25.813-58.747 46.383-77.34 17.024-15.388 37.286-24.988 52.094-24.471l13.824 0.4817 0.25301-0.28628c43.312-48.88 102.24-77.385 165.43-77.98l2.0183-0.009495h0.3862zm-0.3862 40c-18.863 0-37.312 3.0677-54.902 8.9287-79.409 30.903-139.83 112.05-139.83 212.65 0 46.781 11.99 90.432 32.655 127.02 24.297 40.88 59.957 71.772 101.25 87.195l1.3675 0.50435 462.79 76.289c0.31179 0.051396 0.62229 0.11017 0.93125 0.17627l0.46225 0.10464 2.903 0.6924 2.6239 0.57275c87.439 18.139 180.26-52.039 209.06-161.48l0.86152-3.3624c28.358-113.74-23.476-223.14-113.24-245.53-3.3158-0.82673-6.6488-1.5275-9.9963-2.1027l-0.32481-0.058576-0.3238-0.063929-80.586-16.594-124.96-25.69-74.366-15.253-63.573-13.005-50.289-10.25-44.746-9.0689-26.425-5.3083-17.066-3.3837-9.4931-1.8423-3.2686-0.61668-2.3009-0.42097-0.068243-0.02669c-0.021614-0.014339-0.021989-0.031638 0.05078-0.046726l0.099074-0.014159 0.15937-0.011536c0.032228-0.00164 0.067449-0.003123 0.1059-0.004426zm331.32 278.47c24.647-98.855 102.14-167.02 177.7-154.37 0.48776 0.081679 0.9688 0.19943 1.4391 0.35228 80.89 26.288 124.28 124.48 99.593 223.51-24.691 99.03-109.1 165.36-192.86 150.59-0.48704-0.085847-0.96704-0.2077-1.436-0.36457-72.661-24.302-109.08-120.87-84.43-219.72zm172.48-134.94c-63.325-9.1836-130.93 50.983-153.07 139.78-22.363 89.695 9.9485 175.37 71.368 195.92l-0.009154-0.003307-0.68476-0.23828 1.4356 0.23924c71.159 11.132 144.22-46.298 167.12-133.42l0.68533-2.6762c22.319-89.515-16.29-176.88-86.369-199.65l0.706 0.23646zm-686.4-65.747-0.34016 0.057532c-0.059798 0.011206-0.1223 0.02352-0.18741 0.03696l-0.42131 0.094297-0.47975 0.12219c-1.6139 0.43382-3.6037 1.1813-5.8048 2.2241-5.4404 2.5776-11.343 6.5398-16.967 11.624-14.343 12.965-25.021 31.197-29.673 54.226-12.371 61.24-14.517 110.99-5.7502 138.1 3.1626 9.7787 16.588 19.327 41.844 26.928-8.8913-26.738-13.914-55.595-14.32-85.647l-0.026822-3.9654c0-54.22 16.266-103.46 43.379-143.41l-11.251-0.39146z"
       id="Combined-Shape" />
    <path
       id="path6"
       d="m191.11 289.81c3.6085 0 64.015 11.847 181.22 35.541 2.6761-8.3816 11.675-18.257 26.996-29.626 11.77-8.7345 27.08-20.226 60.046-28.949 6.6295-1.7542 19.891-3.4639 39.784-5.1291l-173.72-40.296c-18.354 1.0114-30.976 2.2101-37.865 3.5961-36.874 7.4179-58.31 19.501-72.74 32.214-25.136 22.146-26.136 32.649-23.718 32.649z" />
  </g>
</svg>
