<?xml version="1.0" encoding="utf-8"?>
<!-- Generator: Adobe Illustrator 21.0.0, SVG Export Plug-In . SVG Version: 6.00 Build 0)  -->
<svg version="1.1" xmlns="http://www.w3.org/2000/svg" xmlns:xlink="http://www.w3.org/1999/xlink" x="0px" y="0px"
	 viewBox="0 0 32 32" enable-background="new 0 0 32 32" xml:space="preserve">
<g id="Layer_1">
</g>
<g id="Layer_2">
	<g>
		<path fill="none" stroke="#000000" stroke-width="1.5" stroke-miterlimit="10" d="M25.146,28.026
			c-2.539,1.933-5.708,3.081-9.146,3.081c-8.345,0-15.111-6.765-15.111-15.111S7.655,0.885,16,0.885s15.111,6.765,15.111,15.111
			c0,3.466-1.167,6.66-3.13,9.209"/>
		<circle fill="none" stroke="#000000" stroke-miterlimit="10" cx="16" cy="15.996" r="6.646"/>
		<circle fill="none" stroke="#000000" stroke-miterlimit="10" cx="16" cy="15.996" r="5.301"/>
		<path fill="none" stroke="#000000" stroke-miterlimit="10" d="M16,21.297c-0.981,0-1.899-0.268-2.687-0.732l-1.404,2.387
			c1.2,0.707,2.598,1.115,4.091,1.115s2.891-0.407,4.091-1.115c-0.309-0.525-0.832-1.415-1.404-2.387
			C17.899,21.029,16.981,21.297,16,21.297z"/>
	</g>
</g>
</svg>
