<?xml version="1.0" encoding="UTF-8" standalone="no"?>
<svg
   xmlns:dc="http://purl.org/dc/elements/1.1/"
   xmlns:cc="http://creativecommons.org/ns#"
   xmlns:rdf="http://www.w3.org/1999/02/22-rdf-syntax-ns#"
   xmlns:svg="http://www.w3.org/2000/svg"
   xmlns="http://www.w3.org/2000/svg"
   xmlns:sodipodi="http://sodipodi.sourceforge.net/DTD/sodipodi-0.dtd"
   xmlns:inkscape="http://www.inkscape.org/namespaces/inkscape"
   inkscape:version="1.0 (4035a4fb49, 2020-05-01)"
   sodipodi:docname="learnmode.svg"
   id="svg10"
   xml:space="preserve"
   enable-background="new 0 0 32 32"
   viewBox="0 0 32 32"
   y="0px"
   x="0px"
   version="1.1"><metadata
   id="metadata16"><rdf:RDF><cc:Work
       rdf:about=""><dc:format>image/svg+xml</dc:format><dc:type
         rdf:resource="http://purl.org/dc/dcmitype/StillImage" /><dc:title></dc:title></cc:Work></rdf:RDF></metadata><defs
   id="defs14" /><sodipodi:namedview
   inkscape:current-layer="svg10"
   inkscape:window-maximized="1"
   inkscape:window-y="-8"
   inkscape:window-x="-8"
   inkscape:cy="18.976744"
   inkscape:cx="16"
   inkscape:zoom="26.875"
   showgrid="false"
   id="namedview12"
   inkscape:window-height="997"
   inkscape:window-width="1680"
   inkscape:pageshadow="2"
   inkscape:pageopacity="0"
   guidetolerance="10"
   gridtolerance="10"
   objecttolerance="10"
   borderopacity="1"
   bordercolor="#666666"
   pagecolor="#ffffff" />
<g
   id="Layer_1">
</g>
<g
   id="Layer_2">
	<polyline
   id="polyline3"
   points="8.009,22.147 8.009,0.889 23.99,0.889    23.99,31.092 8.009,31.092 8.009,26.147  "
   stroke-miterlimit="10"
   stroke-width="1.5"
   stroke="#000000"
   fill="none" />
	<rect
   id="rect5"
   height="18.443"
   width="12.11"
   stroke-miterlimit="10"
   stroke="#000000"
   fill="none"
   y="0.889"
   x="9.945" />
	<circle
   id="circle7"
   r="1.583"
   cy="24.207"
   cx="16"
   stroke-miterlimit="10"
   stroke="#000000"
   fill="none" />
</g>
<path
   id="path18"
   d="M 15.672658,25.213726 C 15.324546,25.08394 15.06365,24.805524 14.97169,24.465688 c -0.09208,-0.340267 0.05478,-0.828089 0.315286,-1.047289 0.309465,-0.260397 0.713348,-0.337744 1.066512,-0.204246 0.269705,0.10195 0.443107,0.250017 0.577996,0.493547 0.09656,0.174329 0.110376,0.236543 0.110376,0.496951 0,0.26013 -0.01386,0.322702 -0.109914,0.496101 -0.190826,0.344496 -0.485062,0.52987 -0.876132,0.55198 -0.149865,0.0085 -0.295604,-0.0064 -0.383156,-0.03901 z"
   style="fill:#0000ff;stroke:#000000;stroke-width:0.0372093" /></svg>
