<?xml version="1.0" encoding="utf-8"?>
<!-- Generator: Adobe Illustrator 21.0.0, SVG Export Plug-In . SVG Version: 6.00 Build 0)  -->
<svg version="1.1" xmlns="http://www.w3.org/2000/svg" xmlns:xlink="http://www.w3.org/1999/xlink" x="0px" y="0px"
	 viewBox="0 0 32 32" enable-background="new 0 0 32 32" xml:space="preserve">
<g id="Layer_1">
</g>
<g id="Layer_2">
	<path fill="none" stroke="#000000" stroke-width="1.5" stroke-miterlimit="10" d="M16,31.111c-7.094,0-9.182-5.575-9.182-7.784
		S6.835,4.738,6.835,4.082S6.748,2.995,7.456,2.529c0.483-0.412,2.346-0.97,4.194-1.26C13.831,0.927,16,0.889,16,0.889
		s2.169,0.038,4.349,0.38c1.848,0.29,3.711,0.848,4.194,1.26c0.709,0.466,0.621,0.898,0.621,1.553s0.017,17.035,0.017,19.245
		S23.094,31.111,16,31.111z"/>
	<path d="M13.129,7.944h-2.321c-0.238,0-0.432-0.193-0.432-0.432V5.965c0-0.238,0.193-0.432,0.432-0.432h2.321
		c0.238,0,0.432,0.193,0.432,0.432v1.547C13.561,7.75,13.368,7.944,13.129,7.944z"/>
	<path d="M17.161,7.944h-2.321c-0.238,0-0.432-0.193-0.432-0.432V5.965c0-0.238,0.193-0.432,0.432-0.432h2.321
		c0.238,0,0.432,0.193,0.432,0.432v1.547C17.592,7.75,17.399,7.944,17.161,7.944z"/>
	<path d="M21.192,7.944h-2.321c-0.238,0-0.432-0.193-0.432-0.432V5.965c0-0.238,0.193-0.432,0.432-0.432h2.321
		c0.238,0,0.432,0.193,0.432,0.432v1.547C21.624,7.75,21.43,7.944,21.192,7.944z"/>
	<path d="M13.129,11.128h-2.321c-0.238,0-0.432-0.193-0.432-0.432V9.149c0-0.238,0.193-0.432,0.432-0.432h2.321
		c0.238,0,0.432,0.193,0.432,0.432v1.547C13.561,10.935,13.368,11.128,13.129,11.128z"/>
	<path d="M17.161,11.128h-2.321c-0.238,0-0.432-0.193-0.432-0.432V9.149c0-0.238,0.193-0.432,0.432-0.432h2.321
		c0.238,0,0.432,0.193,0.432,0.432v1.547C17.592,10.935,17.399,11.128,17.161,11.128z"/>
	<path d="M21.192,11.128h-2.321c-0.238,0-0.432-0.193-0.432-0.432V9.149c0-0.238,0.193-0.432,0.432-0.432h2.321
		c0.238,0,0.432,0.193,0.432,0.432v1.547C21.624,10.935,21.43,11.128,21.192,11.128z"/>
	<path d="M13.129,14.313h-2.321c-0.238,0-0.432-0.193-0.432-0.432v-1.547c0-0.238,0.193-0.432,0.432-0.432h2.321
		c0.238,0,0.432,0.193,0.432,0.432v1.547C13.561,14.12,13.368,14.313,13.129,14.313z"/>
	<path d="M17.161,14.313h-2.321c-0.238,0-0.432-0.193-0.432-0.432v-1.547c0-0.238,0.193-0.432,0.432-0.432h2.321
		c0.238,0,0.432,0.193,0.432,0.432v1.547C17.592,14.12,17.399,14.313,17.161,14.313z"/>
	<path d="M21.192,14.313h-2.321c-0.238,0-0.432-0.193-0.432-0.432v-1.547c0-0.238,0.193-0.432,0.432-0.432h2.321
		c0.238,0,0.432,0.193,0.432,0.432v1.547C21.624,14.12,21.43,14.313,21.192,14.313z"/>
	<path d="M13.129,17.498h-2.321c-0.238,0-0.432-0.193-0.432-0.432v-1.547c0-0.238,0.193-0.432,0.432-0.432h2.321
		c0.238,0,0.432,0.193,0.432,0.432v1.547C13.561,17.304,13.368,17.498,13.129,17.498z"/>
	<path d="M17.161,17.498h-2.321c-0.238,0-0.432-0.193-0.432-0.432v-1.547c0-0.238,0.193-0.432,0.432-0.432h2.321
		c0.238,0,0.432,0.193,0.432,0.432v1.547C17.592,17.304,17.399,17.498,17.161,17.498z"/>
	<path d="M17.797,20.952h-3.65c-0.265,0-0.48-0.215-0.48-0.48v-1.721c0-0.265,0.215-0.48,0.48-0.48h3.65
		c0.265,0,0.48,0.215,0.48,0.48v1.721C18.277,20.737,18.062,20.952,17.797,20.952z"/>
	<path d="M21.192,17.498h-2.321c-0.238,0-0.432-0.193-0.432-0.432v-1.547c0-0.238,0.193-0.432,0.432-0.432h2.321
		c0.238,0,0.432,0.193,0.432,0.432v1.547C21.624,17.304,21.43,17.498,21.192,17.498z"/>
	<path fill="none" stroke="#000000" stroke-miterlimit="10" d="M8.362,27.626c1.258-3.042,4.205-5.177,7.638-5.177
		c1.85,0,3.559,0.62,4.939,1.668"/>
	<ellipse cx="15.972" cy="3.401" rx="3.169" ry="0.703"/>
</g>
</svg>
