<?xml version="1.0" encoding="UTF-8" standalone="no"?>
<svg
   xmlns:dc="http://purl.org/dc/elements/1.1/"
   xmlns:cc="http://creativecommons.org/ns#"
   xmlns:rdf="http://www.w3.org/1999/02/22-rdf-syntax-ns#"
   xmlns:svg="http://www.w3.org/2000/svg"
   xmlns="http://www.w3.org/2000/svg"
   xmlns:sodipodi="http://sodipodi.sourceforge.net/DTD/sodipodi-0.dtd"
   xmlns:inkscape="http://www.inkscape.org/namespaces/inkscape"
   inkscape:version="1.0 (4035a4fb49, 2020-05-01)"
   sodipodi:docname="learnmode.svg"
   id="svg36"
   xml:space="preserve"
   enable-background="new 0 0 32 32"
   viewBox="0 0 32 32"
   y="0px"
   x="0px"
   version="1.1"><metadata
   id="metadata42"><rdf:RDF><cc:Work
       rdf:about=""><dc:format>image/svg+xml</dc:format><dc:type
         rdf:resource="http://purl.org/dc/dcmitype/StillImage" /><dc:title></dc:title></cc:Work></rdf:RDF></metadata><defs
   id="defs40" /><sodipodi:namedview
   inkscape:current-layer="svg36"
   inkscape:window-maximized="1"
   inkscape:window-y="-8"
   inkscape:window-x="-8"
   inkscape:cy="13.116279"
   inkscape:cx="16"
   inkscape:zoom="26.875"
   showgrid="false"
   id="namedview38"
   inkscape:window-height="997"
   inkscape:window-width="1680"
   inkscape:pageshadow="2"
   inkscape:pageopacity="0"
   guidetolerance="10"
   gridtolerance="10"
   objecttolerance="10"
   borderopacity="1"
   bordercolor="#666666"
   pagecolor="#ffffff" />
<g
   id="Layer_1">
</g>
<g
   id="Layer_2">
	<path
   id="path3"
   d="M16,31.111c-7.094,0-9.182-5.575-9.182-7.784   S6.835,4.738,6.835,4.082S6.748,2.995,7.456,2.529c0.483-0.412,2.346-0.97,4.194-1.26C13.831,0.927,16,0.889,16,0.889   s2.169,0.038,4.349,0.38c1.848,0.29,3.711,0.848,4.194,1.26c0.709,0.466,0.621,0.898,0.621,1.553s0.017,17.035,0.017,19.245   S23.094,31.111,16,31.111z"
   stroke-miterlimit="10"
   stroke-width="1.5"
   stroke="#000000"
   fill="none" />
	<path
   id="path5"
   d="M13.129,7.944h-2.321c-0.238,0-0.432-0.193-0.432-0.432V5.965c0-0.238,0.193-0.432,0.432-0.432h2.321   c0.238,0,0.432,0.193,0.432,0.432v1.547C13.561,7.75,13.368,7.944,13.129,7.944z" />
	<path
   id="path7"
   d="M17.161,7.944h-2.321c-0.238,0-0.432-0.193-0.432-0.432V5.965c0-0.238,0.193-0.432,0.432-0.432h2.321   c0.238,0,0.432,0.193,0.432,0.432v1.547C17.592,7.75,17.399,7.944,17.161,7.944z" />
	<path
   id="path9"
   d="M21.192,7.944h-2.321c-0.238,0-0.432-0.193-0.432-0.432V5.965c0-0.238,0.193-0.432,0.432-0.432h2.321   c0.238,0,0.432,0.193,0.432,0.432v1.547C21.624,7.75,21.43,7.944,21.192,7.944z" />
	<path
   id="path11"
   d="M13.129,11.128h-2.321c-0.238,0-0.432-0.193-0.432-0.432V9.149c0-0.238,0.193-0.432,0.432-0.432h2.321   c0.238,0,0.432,0.193,0.432,0.432v1.547C13.561,10.935,13.368,11.128,13.129,11.128z" />
	<path
   id="path13"
   d="M17.161,11.128h-2.321c-0.238,0-0.432-0.193-0.432-0.432V9.149c0-0.238,0.193-0.432,0.432-0.432h2.321   c0.238,0,0.432,0.193,0.432,0.432v1.547C17.592,10.935,17.399,11.128,17.161,11.128z" />
	<path
   id="path15"
   d="M21.192,11.128h-2.321c-0.238,0-0.432-0.193-0.432-0.432V9.149c0-0.238,0.193-0.432,0.432-0.432h2.321   c0.238,0,0.432,0.193,0.432,0.432v1.547C21.624,10.935,21.43,11.128,21.192,11.128z" />
	<path
   id="path17"
   d="M13.129,14.313h-2.321c-0.238,0-0.432-0.193-0.432-0.432v-1.547c0-0.238,0.193-0.432,0.432-0.432h2.321   c0.238,0,0.432,0.193,0.432,0.432v1.547C13.561,14.12,13.368,14.313,13.129,14.313z" />
	<path
   id="path19"
   d="M17.161,14.313h-2.321c-0.238,0-0.432-0.193-0.432-0.432v-1.547c0-0.238,0.193-0.432,0.432-0.432h2.321   c0.238,0,0.432,0.193,0.432,0.432v1.547C17.592,14.12,17.399,14.313,17.161,14.313z" />
	<path
   id="path21"
   d="M21.192,14.313h-2.321c-0.238,0-0.432-0.193-0.432-0.432v-1.547c0-0.238,0.193-0.432,0.432-0.432h2.321   c0.238,0,0.432,0.193,0.432,0.432v1.547C21.624,14.12,21.43,14.313,21.192,14.313z" />
	<path
   id="path23"
   d="M13.129,17.498h-2.321c-0.238,0-0.432-0.193-0.432-0.432v-1.547c0-0.238,0.193-0.432,0.432-0.432h2.321   c0.238,0,0.432,0.193,0.432,0.432v1.547C13.561,17.304,13.368,17.498,13.129,17.498z" />
	<path
   id="path25"
   d="M17.161,17.498h-2.321c-0.238,0-0.432-0.193-0.432-0.432v-1.547c0-0.238,0.193-0.432,0.432-0.432h2.321   c0.238,0,0.432,0.193,0.432,0.432v1.547C17.592,17.304,17.399,17.498,17.161,17.498z" />
	<path
   id="path27"
   d="M17.797,20.952h-3.65c-0.265,0-0.48-0.215-0.48-0.48v-1.721c0-0.265,0.215-0.48,0.48-0.48h3.65   c0.265,0,0.48,0.215,0.48,0.48v1.721C18.277,20.737,18.062,20.952,17.797,20.952z" />
	<path
   id="path29"
   d="M21.192,17.498h-2.321c-0.238,0-0.432-0.193-0.432-0.432v-1.547c0-0.238,0.193-0.432,0.432-0.432h2.321   c0.238,0,0.432,0.193,0.432,0.432v1.547C21.624,17.304,21.43,17.498,21.192,17.498z" />
	<path
   id="path31"
   d="M8.362,27.626c1.258-3.042,4.205-5.177,7.638-5.177   c1.85,0,3.559,0.62,4.939,1.668"
   stroke-miterlimit="10"
   stroke="#000000"
   fill="none" />
	<ellipse
   id="ellipse33"
   ry="0.703"
   rx="3.169"
   cy="3.401"
   cx="15.972" />
</g>
<path
   id="path44"
   d="m 10.675914,11.072692 c -0.06313,-0.02749 -0.151837,-0.09708 -0.197123,-0.154655 -0.08071,-0.102605 -0.08212,-0.123015 -0.07126,-1.0307482 l 0.01108,-0.9260705 0.121517,-0.1085161 0.121517,-0.1085162 h 1.30546 1.305459 l 0.126512,0.1265117 0.126511,0.1265116 v 0.9289355 c 0,0.8794792 -0.0041,0.9340872 -0.07611,1.0256952 -0.04186,0.05322 -0.13814,0.113987 -0.213953,0.135043 -0.217448,0.06039 -2.416303,0.0482 -2.559603,-0.01419 z"
   style="fill:#0000ff;stroke:#000000;stroke-width:0.0372093" /><path
   id="path46"
   d="M 10.630627,17.426128 C 10.41368,17.31921 10.4,17.252275 10.4,16.297674 c 0,-0.948253 0.01569,-1.027547 0.224722,-1.135641 0.09606,-0.04968 0.293164,-0.05632 1.397809,-0.04714 l 1.285976,0.01069 0.108537,0.121518 0.108537,0.121517 v 0.921366 c 0,0.79159 -0.0085,0.933568 -0.06068,1.007995 -0.124918,0.178346 -0.221414,0.190457 -1.510221,0.189548 -1.033182,-7.29e-4 -1.218379,-0.0093 -1.324056,-0.0614 z"
   style="fill:#0000ff;stroke:#000000;stroke-width:0.0372093" /><text
   id="text50"
   y="10.381395"
   x="10.902326"
   style="font-size:5.33333px;line-height:1.25;font-family:sans-serif"
   xml:space="preserve"><tspan
     y="10.381395"
     x="10.902326"
     id="tspan48"
     sodipodi:role="line" /></text><text
   id="text54"
   y="6.4372091"
   x="11.237209"
   style="font-size:4px;line-height:1.25;font-family:sans-serif"
   xml:space="preserve"><tspan
     y="6.4372091"
     x="11.237209"
     id="tspan52"
     sodipodi:role="line" /></text><text
   id="text58"
   y="10.232558"
   x="11.460465"
   style="font-size:3px;line-height:1.25;font-family:sans-serif;fill:#ffffff;"
   xml:space="preserve"><tspan
     y="10.232558"
     x="11.460465"
     id="tspan56"
     sodipodi:role="line" /></text><text
   id="text62"
   y="10.67907"
   x="11.200001"
   style="font-size:2px;line-height:1.25;font-family:sans-serif;fill:#b3b3b3;"
   xml:space="preserve"><tspan
     y="10.67907"
     x="11.200001"
     id="tspan60"
     sodipodi:role="line">4</tspan></text><text
   id="text66"
   y="17.451162"
   x="11.348838"
   style="font-size:2px;line-height:1.25;font-family:sans-serif;fill:#cccccc"
   xml:space="preserve"><tspan
     y="17.451162"
     x="11.348838"
     id="tspan64"
     sodipodi:role="line">*</tspan></text></svg>
