<?xml version="1.0" encoding="utf-8"?>
<!-- Generator: Adobe Illustrator 21.0.0, SVG Export Plug-In . SVG Version: 6.00 Build 0)  -->
<svg version="1.1" xmlns="http://www.w3.org/2000/svg" xmlns:xlink="http://www.w3.org/1999/xlink" x="0px" y="0px"
	 viewBox="0 0 32 32" enable-background="new 0 0 32 32" xml:space="preserve">
<g id="Layer_1">
</g>
<g id="Layer_2">
	<g>
		<path fill="none" stroke="#000000" stroke-width="1.5" stroke-miterlimit="10" d="M24.944,11.333
			c0.583,0.247,0.993,0.824,0.993,1.498v16.623c0,0.898-0.728,1.625-1.625,1.625H7.688c-0.898,0-1.625-0.728-1.625-1.625V12.83
			c0-0.898,0.728-1.625,1.625-1.625h11.455"/>
		<circle fill="none" stroke="#000000" stroke-width="1.5" stroke-miterlimit="10" cx="16" cy="21.156" r="9.955"/>
		<path fill="none" stroke="#000000" stroke-miterlimit="10" d="M19.147,27.603c-0.95,0.465-2.018,0.725-3.147,0.725
			c-3.961,0-7.172-3.211-7.172-7.172s3.211-7.172,7.172-7.172s7.172,3.211,7.172,7.172c0,1.382-0.391,2.673-1.068,3.768"/>
		<path fill="none" stroke="#000000" stroke-width="1.5" stroke-miterlimit="10" d="M25.125,17.18V2.997
			c0-1.164-1.338-2.108-2.989-2.108s-2.99,0.944-2.99,2.108v8.713"/>
	</g>
</g>
</svg>
