<?xml version="1.0" encoding="UTF-8" standalone="no"?>
<svg
   xmlns:dc="http://purl.org/dc/elements/1.1/"
   xmlns:cc="http://creativecommons.org/ns#"
   xmlns:rdf="http://www.w3.org/1999/02/22-rdf-syntax-ns#"
   xmlns:svg="http://www.w3.org/2000/svg"
   xmlns="http://www.w3.org/2000/svg"
   xmlns:sodipodi="http://sodipodi.sourceforge.net/DTD/sodipodi-0.dtd"
   xmlns:inkscape="http://www.inkscape.org/namespaces/inkscape"
   inkscape:version="1.0 (4035a4fb49, 2020-05-01)"
   sodipodi:docname="learnmode.svg"
   id="svg14"
   xml:space="preserve"
   enable-background="new 0 0 32 32"
   viewBox="0 0 32 32"
   y="0px"
   x="0px"
   version="1.1"><metadata
   id="metadata20"><rdf:RDF><cc:Work
       rdf:about=""><dc:format>image/svg+xml</dc:format><dc:type
         rdf:resource="http://purl.org/dc/dcmitype/StillImage" /><dc:title></dc:title></cc:Work></rdf:RDF></metadata><defs
   id="defs18" /><sodipodi:namedview
   inkscape:current-layer="svg14"
   inkscape:window-maximized="1"
   inkscape:window-y="-8"
   inkscape:window-x="-8"
   inkscape:cy="16"
   inkscape:cx="16"
   inkscape:zoom="26.875"
   showgrid="false"
   id="namedview16"
   inkscape:window-height="997"
   inkscape:window-width="1680"
   inkscape:pageshadow="2"
   inkscape:pageopacity="0"
   guidetolerance="10"
   gridtolerance="10"
   objecttolerance="10"
   borderopacity="1"
   bordercolor="#666666"
   pagecolor="#ffffff" />
<g
   id="Layer_1">
</g>
<g
   id="Layer_2">
	<g
   id="g11">
		<path
   id="path3"
   d="M24.944,11.333    c0.583,0.247,0.993,0.824,0.993,1.498v16.623c0,0.898-0.728,1.625-1.625,1.625H7.688c-0.898,0-1.625-0.728-1.625-1.625V12.83    c0-0.898,0.728-1.625,1.625-1.625h11.455"
   stroke-miterlimit="10"
   stroke-width="1.5"
   stroke="#000000"
   fill="none" />
		<circle
   id="circle5"
   r="9.955"
   cy="21.156"
   cx="16"
   stroke-miterlimit="10"
   stroke-width="1.5"
   stroke="#000000"
   fill="none" />
		<path
   id="path7"
   d="M19.147,27.603c-0.95,0.465-2.018,0.725-3.147,0.725    c-3.961,0-7.172-3.211-7.172-7.172s3.211-7.172,7.172-7.172s7.172,3.211,7.172,7.172c0,1.382-0.391,2.673-1.068,3.768"
   stroke-miterlimit="10"
   stroke="#000000"
   fill="none" />
		<path
   id="path9"
   d="M25.125,17.18V2.997    c0-1.164-1.338-2.108-2.989-2.108s-2.99,0.944-2.99,2.108v8.713"
   stroke-miterlimit="10"
   stroke-width="1.5"
   stroke="#000000"
   fill="none" />
	</g>
</g>
<ellipse
   ry="1.2465116"
   rx="1.283721"
   cy="19.330233"
   cx="13.339535"
   id="path22"
   style="fill:#ff0000;stroke:#000000" /></svg>
