<?xml version="1.0" encoding="utf-8"?>
<!-- Generator: Adobe Illustrator 21.0.0, SVG Export Plug-In . SVG Version: 6.00 Build 0)  -->
<svg version="1.1" xmlns="http://www.w3.org/2000/svg" xmlns:xlink="http://www.w3.org/1999/xlink" x="0px" y="0px"
	 viewBox="0 0 32 32" enable-background="new 0 0 32 32" xml:space="preserve">
<g id="Layer_1">
</g>
<g id="Layer_2">
	<g>
		<path fill="none" stroke="#000000" stroke-width="1.5" stroke-miterlimit="10" d="M19.405,28.631h-6.81
			c-6.536,0-11.884-5.348-11.884-11.884v-1.512c0-6.536,5.348-11.884,11.884-11.884h6.81c6.536,0,11.884,5.348,11.884,11.884v1.512
			C31.289,23.283,25.941,28.631,19.405,28.631z"/>
		<path fill="none" stroke="#000000" stroke-width="1.5" stroke-miterlimit="10" d="M10.235,10.022V9.031
			c0-0.999,0.81-1.809,1.809-1.809h7.913c0.999,0,1.809,0.81,1.809,1.809v13.921c0,0.999-0.81,1.809-1.809,1.809h-7.913
			c-0.999,0-1.809-0.81-1.809-1.809v-8.93"/>
		<path fill="none" stroke="#000000" stroke-miterlimit="10" d="M18.575,19.108h-5.149c-0.353,0-0.64-0.286-0.64-0.64v-2.655
			c0-0.353,0.286-0.64,0.64-0.64h5.149c0.353,0,0.64,0.286,0.64,0.64v2.655C19.214,18.822,18.928,19.108,18.575,19.108z"/>
		<path id="XMLID_286_" fill="none" stroke="#000000" stroke-width="0.5" stroke-miterlimit="10" d="M14.656,12.617
			c0.081-0.081,0.168-0.152,0.259-0.215l0.337-0.181c0.686-0.28,1.518-0.13,2.091,0.442"/>
		<path id="XMLID_285_" fill="none" stroke="#000000" stroke-width="0.5" stroke-miterlimit="10" d="M13.958,11.907
			c1.108-1.108,2.935-1.077,4.083,0.07"/>
		<path id="XMLID_284_" fill="none" stroke="#000000" stroke-width="0.5" stroke-miterlimit="10" d="M13.199,11.134
			c1.521-1.521,4.028-1.477,5.602,0.097"/>
	</g>
</g>
</svg>
