<?xml version="1.0" encoding="UTF-8" standalone="no"?>
<svg
   xmlns:dc="http://purl.org/dc/elements/1.1/"
   xmlns:cc="http://creativecommons.org/ns#"
   xmlns:rdf="http://www.w3.org/1999/02/22-rdf-syntax-ns#"
   xmlns:svg="http://www.w3.org/2000/svg"
   xmlns="http://www.w3.org/2000/svg"
   xmlns:sodipodi="http://sodipodi.sourceforge.net/DTD/sodipodi-0.dtd"
   xmlns:inkscape="http://www.inkscape.org/namespaces/inkscape"
   inkscape:version="1.0 (4035a4fb49, 2020-05-01)"
   height="30mm"
   width="30mm"
   sodipodi:docname="icon.svg"
   xml:space="preserve"
   viewBox="0 0 113.38583 113.38583"
   y="0px"
   x="0px"
   id="Ebene_1"
   version="1.1"><metadata
   id="metadata23"><rdf:RDF><cc:Work
       rdf:about=""><dc:format>image/svg+xml</dc:format><dc:type
         rdf:resource="http://purl.org/dc/dcmitype/StillImage" /><dc:title></dc:title></cc:Work></rdf:RDF></metadata><defs
   id="defs21" /><sodipodi:namedview
   inkscape:current-layer="g16"
   inkscape:window-maximized="1"
   inkscape:window-y="-8"
   inkscape:window-x="-8"
   inkscape:cy="114.05665"
   inkscape:cx="144.5"
   inkscape:zoom="3.5121107"
   units="mm"
   showgrid="false"
   id="namedview19"
   inkscape:window-height="997"
   inkscape:window-width="1680"
   inkscape:pageshadow="2"
   inkscape:pageopacity="0"
   guidetolerance="10"
   gridtolerance="10"
   objecttolerance="10"
   borderopacity="1"
   bordercolor="#666666"
   pagecolor="#ffffff" />
<style
   id="style2"
   type="text/css">
	.st0{stroke:#000000;stroke-miterlimit:10;}
</style>
<g
   transform="matrix(1.3723476,0,0,1.6062862,-51.355627,-40.922466)"
   id="g16">
	<path
   id="path4"
   d="M 115.54,48.88"
   class="st0" />
	<path
   style="stroke-width:1.22573"
   id="path6"
   d="m 93.950111,29.132456 v 11.647731 c 6.923169,4.325969 11.456349,11.485795 11.456349,19.582529 0,13.197676 -12.014879,23.908499 -26.848385,23.908499 -14.833506,0 -26.835397,-10.699256 -26.835397,-23.908499 0,-8.096734 4.533182,-15.244993 11.45635,-19.570963 v -11.68243 c -13.508622,5.274444 -22.938679,17.280743 -22.938679,31.253393 0,18.842256 17.158548,34.12195 38.317726,34.12195 21.159178,0 38.317725,-15.279694 38.317725,-34.12195 0,-13.961083 -9.43006,-25.944249 -22.925689,-31.23026 z" />
	
	
	
	<rect
   style="stroke-width:1.22573"
   id="rect14"
   height="34.121948"
   width="11.313471"
   y="27.744446"
   x="72.907829" />
</g>
</svg>
