<?xml version="1.0" encoding="UTF-8" standalone="no"?>
<svg
   xmlns:dc="http://purl.org/dc/elements/1.1/"
   xmlns:cc="http://creativecommons.org/ns#"
   xmlns:rdf="http://www.w3.org/1999/02/22-rdf-syntax-ns#"
   xmlns:svg="http://www.w3.org/2000/svg"
   xmlns="http://www.w3.org/2000/svg"
   xmlns:sodipodi="http://sodipodi.sourceforge.net/DTD/sodipodi-0.dtd"
   xmlns:inkscape="http://www.inkscape.org/namespaces/inkscape"
   inkscape:version="1.0 (4035a4fb49, 2020-05-01)"
   sodipodi:docname="icon.svg"
   xml:space="preserve"
   style="enable-background:new 0 0 232 78;"
   viewBox="0 0 232 78"
   y="0px"
   x="0px"
   id="Ebene_1"
   version="1.1"><metadata
   id="metadata23"><rdf:RDF><cc:Work
       rdf:about=""><dc:format>image/svg+xml</dc:format><dc:type
         rdf:resource="http://purl.org/dc/dcmitype/StillImage" /></cc:Work></rdf:RDF></metadata><defs
   id="defs21" /><sodipodi:namedview
   inkscape:current-layer="Ebene_1"
   inkscape:window-maximized="1"
   inkscape:window-y="-9"
   inkscape:window-x="-9"
   inkscape:cy="39"
   inkscape:cx="116"
   inkscape:zoom="4.7758621"
   showgrid="false"
   id="namedview19"
   inkscape:window-height="1013"
   inkscape:window-width="1920"
   inkscape:pageshadow="2"
   inkscape:pageopacity="0"
   guidetolerance="10"
   gridtolerance="10"
   objecttolerance="10"
   borderopacity="1"
   bordercolor="#666666"
   pagecolor="#ffffff" />
<style
   id="style2"
   type="text/css">
	.st0{stroke:#000000;stroke-miterlimit:10;}
</style>
<g
   transform="matrix(1.0979384,0,0,1.2395059,-11.834373,-10.058889)"
   id="g16">
	<path
   id="path4"
   d="M 89.5,21.9"
   class="st0" />
	<path
   id="path6"
   d="m 101.7,12.6 v 10.1 c 5.3,3.7 8.8,9.9 8.8,16.9 0,11.4 -9.2,20.7 -20.7,20.7 -11.5,0 -20.7,-9.3 -20.7,-20.7 0,-7 3.5,-13.2 8.8,-16.9 V 12.6 c -10.4,4.6 -17.7,14.9 -17.7,27 0,16.3 13.2,29.5 29.5,29.5 16.3,0 29.5,-13.2 29.5,-29.5 0.1,-12.1 -7.2,-22.4 -17.5,-27 z" />
	<path
   id="path8"
   d="M 34.5,49.8 21.7,49.9 V 68.7 H 11.8 V 11.4 h 21.7 c 12,0 21.3,7.1 21.8,17.6 0.5,11.5 -9.5,20.8 -20.8,20.8 z M 35.1,21 H 21.5 v 19.4 h 13.2 c 4.9,0 11.6,-4.2 10.8,-10.9 -1,-7.4 -6.3,-8.6 -10.4,-8.5 z" />
	<path
   id="path10"
   d="m 149.7,49.8 -12.8,0.1 V 68.7 H 127 V 11.4 h 21.7 c 12,0 21.3,7.1 21.8,17.6 0.6,11.5 -9.4,20.8 -20.8,20.8 z M 150.4,21 h -13.7 v 19.4 h 13.2 c 4.9,0 11.6,-4.2 10.8,-10.9 -0.9,-7.4 -6.3,-8.6 -10.3,-8.5 z" />
	<path
   id="path12"
   d="m 200.5,49.8 -12.8,0.1 v 18.8 h -9.9 V 11.4 h 21.7 c 12,0 21.3,7.1 21.8,17.6 0.5,11.5 -9.5,20.8 -20.8,20.8 z M 201.1,21 h -13.7 v 19.4 h 13.2 c 4.9,0 11.6,-4.2 10.8,-10.9 -0.9,-7.4 -6.2,-8.6 -10.3,-8.5 z" />
	<rect
   id="rect14"
   height="29.5"
   width="8.6999998"
   y="11.4"
   x="85.400002" />
</g>
</svg>
