<?xml version="1.0" encoding="UTF-8" standalone="no"?>
<svg
   xmlns:dc="http://purl.org/dc/elements/1.1/"
   xmlns:cc="http://creativecommons.org/ns#"
   xmlns:rdf="http://www.w3.org/1999/02/22-rdf-syntax-ns#"
   xmlns:svg="http://www.w3.org/2000/svg"
   xmlns="http://www.w3.org/2000/svg"
   id="svg10"
   xml:space="preserve"
   enable-background="new 0 0 1000 1000"
   viewBox="0 0 1000 1000"
   y="0px"
   x="0px"
   version="1.1"><defs
   id="defs14" />
<metadata
   id="metadata2"> Svg Vector Icons : http://www.onlinewebfonts.com/icon <rdf:RDF><cc:Work
     rdf:about=""><dc:format>image/svg+xml</dc:format><dc:type
       rdf:resource="http://purl.org/dc/dcmitype/StillImage" /><dc:title></dc:title></cc:Work></rdf:RDF></metadata>
<g
   transform="translate(-3.5629453,-1.187648)"
   id="g8"><path
     id="path4"
     d="m 828.8,861.8 c -19,0 -35,-15.7 -35,-34.9 0,-18.7 16,-34.1 35,-34.1 19.1,0 34.6,15.4 34.6,34.1 0,19.2 -15.5,34.9 -34.6,34.9 z m 52.9,-79.4 -197,-194.7 c 12.7,-26.5 19.7,-56.4 19.7,-87.7 0,-112.9 -91.1,-204.2 -204.2,-204.2 -18.8,0 -37.3,2.5 -54.6,7.5 l 87.5,87 c 36.2,36.6 33.4,97.6 -5.9,136.8 C 488,566.2 426.6,569 390.4,533 l -87.3,-87.7 c -4.8,17.5 -7.3,35.8 -7.3,54.8 0,113.3 91.5,204.9 204.3,204.9 31.1,0 61.1,-7.1 87.5,-19.9 l 196.1,195 c 25,24.6 66.8,23.1 93.7,-4.1 26.8,-26.9 28.6,-69 4.3,-93.6 z" /><path
     id="path6"
     d="M 928.8,409.3 H 909 L 862.5,409 h -0.3 c -9.4,-0.9 -18.3,-4.3 -26,-9.2 -0.6,0 -0.8,-0.3 -1.1,-0.6 -16.4,-10.8 -27.5,-29.8 -27.2,-51.1 0,-6.7 1.4,-12.8 3.5,-19 1.8,-6.7 5.2,-13.2 9.7,-18.8 l 10.3,-10.5 23.2,-22.8 13.7,-13.9 c 19.8,-25.7 19.8,-62.5 -0.8,-88.2 L 827.6,134 c -26.5,-20.3 -63.2,-21 -89.1,-1.2 l -14.5,13.7 -32.3,33.3 h -0.5 C 673.6,194 649.3,196.7 629.1,187.9 622.2,184.7 616,180.7 610,175 600.4,164.7 594.5,152.2 592.8,139 V 124.5 92 72 C 588.8,39.3 563,13.8 529.7,10.1 h -56.8 c -32.7,3.5 -59,29.1 -63.6,61.5 v 19.8 33.2 13.2 0.2 c -0.2,1.7 -0.8,3.6 -0.9,5 0,0.2 0,0.6 0,0.6 -0.5,1.8 -0.7,3.4 -1,4.8 -0.6,0 -0.6,0.6 -0.6,0.6 -0.6,1.6 -0.9,3.8 -1.8,4.9 v 0 c -0.5,1.9 -1.5,3.4 -2.3,4.9 0,0.3 0,0.3 0,0.3 -3.4,7.1 -8.3,13.2 -14.8,18.5 -10.4,8.9 -24.5,14.4 -39.7,14.4 -14.2,0 -27.4,-4.8 -37.6,-13.1 L 300.3,168.4 277,145.7 262.9,131.5 c -25.8,-19.7 -62.5,-19.7 -88.1,0.9 l -40.9,40.3 c -20.6,25.6 -20.9,62.4 -1.2,88.6 l 14.1,13.9 33,32.8 c 0.6,1.1 1.1,1.9 1.7,2.8 0.4,0.3 0.9,1.2 1.7,2.2 0.5,0.6 0.9,1.9 1.5,2.7 0,0.2 1,1.3 1,1.9 0.6,0.9 1.3,2.3 2,3.4 0,0.6 0.2,1.3 0.5,1.9 0.7,0.9 0.9,2.3 1.7,3.6 0,0.3 0.1,0.9 0.3,1.6 0.2,1.9 1.2,3.4 1.2,5.3 v 0 c 0.5,1.9 0.9,3.7 0.9,5.5 2.6,18.2 -3.4,36.9 -17.5,50.8 v 0 c -10,10.2 -22.8,16.1 -36,17.5 H 124.4 91.9 72.2 c -32.6,4.6 -58.3,30.6 -62,63 L 10,527.4 c 3.4,33 29,58.8 61.5,63.1 h 20 l 46.4,0.6 c 1.7,0.2 4,0.2 5.6,0.8 0.6,0 1.1,0 1.5,0 1.5,0.6 2.4,1.1 4,1.3 25.1,7.7 43.3,31.2 43.3,58.8 0,14.2 -4.8,27.7 -13.3,38.2 l -10.2,9.9 -23.4,23 -13.9,13.9 c -19.5,26.1 -19.5,62.7 0.7,88.3 l 40.6,41 c 25.9,20.6 62.2,20.9 88.6,0.9 l 13.9,-13.9 33.3,-32.5 c 0,-0.4 0.3,-0.4 0.8,-0.6 1.2,-1.2 2.6,-1.9 3.5,-3.1 1.2,-0.2 1.4,-0.2 2.2,-0.8 0.6,-0.4 1.7,-1.3 2.6,-1.9 1.2,-0.6 2.6,-0.9 3.8,-1.6 0.8,-0.3 1.3,-0.6 1.5,-0.9 1.7,-0.3 2.9,-0.9 5.3,-1.5 v 0 c 1.9,-0.6 3.3,-1.6 4.7,-1.6 0.2,0 0.2,0 0.5,0 1.6,-0.3 3.3,-0.6 5.1,-0.9 h 0.4 c 1.5,0 2.9,0 4.2,-0.6 17,-0.6 34.3,5.2 46.9,18.1 10.5,10.2 15.9,23.1 17.8,36.3 l -0.2,14.4 v 32.3 19.7 c 4,33 30.1,58.8 62.8,62.1 h 57.4 c 32.9,-3.4 58.7,-28.9 63.2,-61.2 v -19.7 l 0.5,-33.5 v -13.2 c 1.2,-12.1 5.6,-21.9 12.1,-30.7 0.6,-0.9 1.3,-1.6 1.9,-2.2 0.4,-0.3 0.9,-1.5 1.8,-1.9 3.7,-4 7.7,-7.6 12.2,-10.7 v 0 c 1.4,-0.2 2.8,-1.3 3.7,-1.9 1,-0.6 0.9,-0.6 1.4,-0.6 v 0 c 0.6,-0.2 1.1,-0.2 1.2,-0.2 1.2,-0.9 2.2,-0.9 3.4,-1.6 L 574.5,758 c -23.9,7 -49,10.4 -74.9,10.4 C 350.8,768 231.2,647.7 231.8,499.8 c 0,-148.6 120.7,-268.6 269,-268.2 148.1,0.6 267.6,120.9 267.4,269.1 -0.1,25.3 -3.9,50.2 -10.5,72.9 L 813,628 c 2.9,-6.5 7.4,-12.2 12.3,-17.8 5.7,-5.5 13.3,-9.8 20.2,-12.5 5.1,-2.3 10.5,-4 15.6,-4.6 h 14.8 32.8 19.5 c 32.4,-4.4 58.2,-30.1 61.9,-62.8 V 472.5 C 986.6,440 961.2,413.8 928.8,409.3 Z" /></g>
<ellipse
   ry="49.881237"
   rx="41.567696"
   cy="828.97864"
   cx="827.79095"
   id="path839"
   style="fill:#000000;fill-rule:evenodd;stroke:#000000;stroke-width:11.1269;stroke-linejoin:round;fill-opacity:1" /><rect
   y="551.06891"
   x="368.17102"
   height="27.315914"
   width="137.76723"
   id="rect841"
   style="fill:#000000;fill-opacity:1;fill-rule:evenodd;stroke:#000000;stroke-width:11.1269;stroke-linejoin:round" /><rect
   y="406.17578"
   x="551.06885"
   height="131.82898"
   width="10.688836"
   id="rect843"
   style="fill:#000000;fill-opacity:1;fill-rule:evenodd;stroke:#000000;stroke-width:11.1269;stroke-linejoin:round" /><rect
   transform="matrix(0.77614454,-0.63055503,0.73553599,0.67748565,0,0)"
   y="1140.0085"
   x="-110.38665"
   height="96.013275"
   width="123.56574"
   id="rect848"
   style="fill:#000000;fill-opacity:1;fill-rule:evenodd;stroke:#000000;stroke-width:13.7288;stroke-linejoin:round" /></svg>
