<?xml version="1.0" encoding="utf-8"?>
<!-- Generator: Adobe Illustrator 21.0.0, SVG Export Plug-In . SVG Version: 6.00 Build 0)  -->
<svg version="1.1" xmlns="http://www.w3.org/2000/svg" xmlns:xlink="http://www.w3.org/1999/xlink" x="0px" y="0px"
	 viewBox="0 0 32 32" enable-background="new 0 0 32 32" xml:space="preserve">
<g id="Layer_1">
</g>
<g id="Layer_2">
	<g>
		<polyline fill="none" stroke="#000000" stroke-width="1.5" stroke-miterlimit="10" points="27.957,7.751 27.957,0.95 4.043,0.95 
			4.043,7.751 		"/>
		<polyline fill="none" stroke="#000000" stroke-width="1.5" stroke-miterlimit="10" points="4.043,15.369 4.043,31.111 
			27.957,31.111 27.957,15.369 		"/>
		<polyline fill="none" stroke="#000000" stroke-width="1.5" stroke-miterlimit="10" points="25.09,6.376 25.09,3.305 6.91,3.305 
			6.91,6.376 		"/>
	</g>
	<line fill="none" stroke="#000000" stroke-miterlimit="10" x1="22.078" y1="24.904" x2="8.007" y2="12.27"/>
	<polygon fill="none" stroke="#000000" stroke-width="1.5" stroke-miterlimit="10" points="27.136,7.751 26.09,7.068 5.91,7.068 
		4.864,7.751 2.864,7.751 6.147,28.756 16,28.756 25.853,28.756 29.136,7.751 	"/>
	<polyline fill="none" stroke="#000000" stroke-miterlimit="10" points="24.543,24.181 24.141,26.756 7.858,26.756 5.201,9.751 
		26.799,9.751 25.343,19.067 	"/>
	<g>
		<circle cx="25.372" cy="19.067" r="1.112"/>
		<line fill="none" stroke="#000000" stroke-miterlimit="10" x1="25.372" y1="19.067" x2="21.594" y2="19.067"/>
	</g>
</g>
</svg>
