<?xml version="1.0" encoding="utf-8"?>
<!-- Generator: Adobe Illustrator 21.0.0, SVG Export Plug-In . SVG Version: 6.00 Build 0)  -->
<svg version="1.1" xmlns="http://www.w3.org/2000/svg" xmlns:xlink="http://www.w3.org/1999/xlink" x="0px" y="0px"
	 viewBox="0 0 32 32" enable-background="new 0 0 32 32" xml:space="preserve">
<g id="Layer_1">
</g>
<g id="Layer_2">
	<g>
		<path fill="none" stroke="#000000" stroke-width="1.5" stroke-miterlimit="10" d="M24.665,18.144V9.699
			c0-4.785-3.879-8.665-8.665-8.665c-4.785,0-8.665,3.879-8.665,8.665v12.723c0,4.785,3.879,8.665,8.665,8.665
			c4.785,0,8.665-3.879,8.665-8.665v-0.278"/>
		<circle cx="12.666" cy="9.801" r="0.933"/>
		<circle cx="19.365" cy="9.801" r="0.933"/>
		<polyline fill="none" stroke="#000000" stroke-miterlimit="10" points="16.589,2.991 16.589,4.227 15.43,4.231 15.429,2.968 		"/>
		<polyline fill="none" stroke="#000000" stroke-miterlimit="10" points="16.589,16.554 16.589,15.359 15.43,15.355 15.429,16.555 
					"/>
		<path fill="none" stroke="#000000" stroke-miterlimit="10" d="M21.79,6.221L21.764,8.7c-0.001,0.112,0.089,0.203,0.201,0.203h0.78
			"/>
		<path fill="none" stroke="#000000" stroke-miterlimit="10" d="M22.745,10.665H21.95c-0.112,0-0.202,0.092-0.201,0.203l0.025,2.476
			"/>
		<path fill="none" stroke="#000000" stroke-miterlimit="10" d="M10.29,13.497l0.026-2.628c0.001-0.112-0.089-0.203-0.201-0.203
			H9.253"/>
		<path fill="none" stroke="#000000" stroke-miterlimit="10" d="M9.253,8.903h0.846c0.112,0,0.202-0.091,0.201-0.203l-0.025-2.638"
			/>
		<circle fill="none" stroke="#000000" stroke-miterlimit="10" cx="16.009" cy="9.779" r="6.811"/>
	</g>
</g>
</svg>
