<?xml version="1.0" encoding="utf-8"?>
<!-- Generator: Adobe Illustrator 21.0.0, SVG Export Plug-In . SVG Version: 6.00 Build 0)  -->
<svg version="1.1" xmlns="http://www.w3.org/2000/svg" xmlns:xlink="http://www.w3.org/1999/xlink" x="0px" y="0px"
	 viewBox="0 0 32 32" enable-background="new 0 0 32 32" xml:space="preserve">
<g id="Layer_1">
</g>
<g id="Layer_2">
	<path fill="none" stroke="#000000" stroke-width="1.5" stroke-miterlimit="10" d="M25.024,23.655v5.198
		c0,1.237-1.002,2.239-2.239,2.239H9.215c-1.237,0-2.239-1.002-2.239-2.239V3.128c0-1.237,1.002-2.239,2.239-2.239h13.571
		c1.237,0,2.239,1.002,2.239,2.239v16.527"/>
	<g>
		<path d="M21.754,3.905c0.174,0,0.316,0.142,0.316,0.316v18.611c0,0.174-0.142,0.315-0.316,0.315H10.383
			c-0.174,0-0.316-0.142-0.316-0.315V4.221c0-0.174,0.142-0.316,0.316-0.316H21.754 M21.754,2.905H10.383
			c-0.727,0-1.316,0.589-1.316,1.316v18.611c0,0.727,0.589,1.315,1.316,1.315h11.372c0.727,0,1.316-0.589,1.316-1.315V4.221
			C23.07,3.494,22.481,2.905,21.754,2.905L21.754,2.905z"/>
	</g>
	<line fill="none" stroke="#000000" stroke-miterlimit="10" x1="6.976" y1="27.528" x2="25.024" y2="27.528"/>
</g>
</svg>
