<?xml version="1.0" encoding="UTF-8" standalone="no"?>
<svg
   xmlns:dc="http://purl.org/dc/elements/1.1/"
   xmlns:cc="http://creativecommons.org/ns#"
   xmlns:rdf="http://www.w3.org/1999/02/22-rdf-syntax-ns#"
   xmlns:svg="http://www.w3.org/2000/svg"
   xmlns="http://www.w3.org/2000/svg"
   xmlns:sodipodi="http://sodipodi.sourceforge.net/DTD/sodipodi-0.dtd"
   xmlns:inkscape="http://www.inkscape.org/namespaces/inkscape"
   inkscape:version="1.0 (4035a4fb49, 2020-05-01)"
   sodipodi:docname="learnmode.svg"
   id="svg20"
   xml:space="preserve"
   enable-background="new 0 0 32 32"
   viewBox="0 0 32 32"
   y="0px"
   x="0px"
   version="1.1"><metadata
   id="metadata26"><rdf:RDF><cc:Work
       rdf:about=""><dc:format>image/svg+xml</dc:format><dc:type
         rdf:resource="http://purl.org/dc/dcmitype/StillImage" /><dc:title></dc:title></cc:Work></rdf:RDF></metadata><defs
   id="defs24" /><sodipodi:namedview
   inkscape:current-layer="Layer_2"
   inkscape:window-maximized="1"
   inkscape:window-y="-8"
   inkscape:window-x="-8"
   inkscape:cy="16"
   inkscape:cx="16"
   inkscape:zoom="26.875"
   showgrid="false"
   id="namedview22"
   inkscape:window-height="997"
   inkscape:window-width="1680"
   inkscape:pageshadow="2"
   inkscape:pageopacity="0"
   guidetolerance="10"
   gridtolerance="10"
   objecttolerance="10"
   borderopacity="1"
   bordercolor="#666666"
   pagecolor="#ffffff" />
<g
   id="Layer_1">
</g>
<g
   id="Layer_2">
	<g
   id="g17">
		<path
   id="path3"
   d="M12.35,27.053c-2.062,0-3.748-1.687-3.748-3.748V4.916    c0-2.062,1.687-3.749,3.748-3.749h7.446c2.062,0,3.749,1.687,3.749,3.749v18.389c0,2.062-1.687,3.748-3.749,3.748h-3.51"
   stroke-miterlimit="10"
   stroke="#000000"
   fill="none" />
		<path
   id="path5"
   d="M12.998,0.903c-2.81,0-5.025,1.435-5.025,5.1    c0,3.775,0,17.183,0,17.183s-0.474,7.902,8.1,7.902c8.574,0,8.1-7.902,8.1-7.902s0-13.408,0-17.183c0-3.666-2.216-5.1-5.025-5.1    C16.517,0.903,15.628,0.903,12.998,0.903z"
   stroke-miterlimit="10"
   stroke-width="1.5"
   stroke="#000000"
   fill="none" />
		<path
   id="path7"
   d="M17.352,28.808h-2.477c-0.325,0-0.589,0.264-0.589,0.589c0,0.325,0.264,0.589,0.589,0.589h2.477    c0.325,0,0.589-0.264,0.589-0.589C17.941,29.072,17.677,28.808,17.352,28.808z" />
		
		
		
		
	</g>
<ellipse
   ry="2.2649615"
   rx="2.2649617"
   cy="5.0034881"
   cx="12.817443"
   id="path851"
   style="fill:#0000ff;fill-opacity:1;fill-rule:evenodd;stroke:#000000;stroke-width:0.470077;stroke-linejoin:round;stroke-miterlimit:10;stroke-opacity:0.97" /><ellipse
   style="fill:#000000;fill-opacity:0;fill-rule:evenodd;stroke:#000000;stroke-width:0.470077;stroke-linejoin:round;stroke-miterlimit:10;stroke-opacity:1"
   id="path851-3"
   cx="19.180233"
   cy="5.1337209"
   rx="2.2649617"
   ry="2.2649615" /><ellipse
   ry="1.8119695"
   rx="1.8119693"
   style="fill:#000000;fill-opacity:0;fill-rule:evenodd;stroke:#000000;stroke-width:0.376061;stroke-linejoin:round;stroke-miterlimit:10;stroke-opacity:0.97"
   id="path851-32"
   cx="20.466278"
   cy="10.735604" /><ellipse
   style="fill:#000000;fill-opacity:0;fill-rule:evenodd;stroke:#000000;stroke-width:0.376061;stroke-linejoin:round;stroke-miterlimit:10;stroke-opacity:0.97"
   id="path851-0"
   cx="11.461629"
   cy="10.661628"
   rx="1.8119693"
   ry="1.8119695" /><ellipse
   ry="0.22325581"
   rx="0.18604651"
   cy="2.8279071"
   cx="16.297674"
   id="path889"
   style="fill:#000000;fill-opacity:0;fill-rule:evenodd;stroke:#000000;stroke-width:0.5;stroke-linejoin:round;stroke-miterlimit:10;stroke-opacity:1" /><text
   id="text893"
   y="5.6558142"
   x="12.24186"
   style="font-size:2px;line-height:1.25;font-family:sans-serif;fill:#ffffff;"
   xml:space="preserve"><tspan
     y="5.6558142"
     x="12.24186"
     id="tspan891"
     sodipodi:role="line">1</tspan></text><text
   id="text897"
   y="5.7674417"
   x="18.567442"
   style="font-size:2px;line-height:1.25;font-family:sans-serif"
   xml:space="preserve"><tspan
     y="5.7674417"
     x="18.567442"
     id="tspan895"
     sodipodi:role="line">2</tspan></text><text
   id="text901"
   y="11.311627"
   x="10.753488"
   style="font-size:2px;line-height:1.25;font-family:sans-serif"
   xml:space="preserve"><tspan
     y="11.311627"
     x="10.753488"
     id="tspan899"
     sodipodi:role="line">3</tspan></text><text
   id="text905"
   y="11.460465"
   x="19.869766"
   style="font-size:2px;line-height:1.25;font-family:sans-serif"
   xml:space="preserve"><tspan
     y="11.460465"
     x="19.869766"
     id="tspan903"
     sodipodi:role="line">4</tspan></text></g>
</svg>
