<?xml version="1.0" encoding="UTF-8" standalone="no"?>
<svg
   xmlns:dc="http://purl.org/dc/elements/1.1/"
   xmlns:cc="http://creativecommons.org/ns#"
   xmlns:rdf="http://www.w3.org/1999/02/22-rdf-syntax-ns#"
   xmlns:svg="http://www.w3.org/2000/svg"
   xmlns="http://www.w3.org/2000/svg"
   xmlns:sodipodi="http://sodipodi.sourceforge.net/DTD/sodipodi-0.dtd"
   xmlns:inkscape="http://www.inkscape.org/namespaces/inkscape"
   inkscape:version="1.0 (4035a4fb49, 2020-05-01)"
   sodipodi:docname="learnmode.svg"
   xml:space="preserve"
   enable-background="new 0 0 500 250"
   viewBox="0 0 500 250"
   height="250px"
   width="500px"
   y="0px"
   x="0px"
   id="Layer_1"
   version="1.1"><metadata
   id="metadata65"><rdf:RDF><cc:Work
       rdf:about=""><dc:format>image/svg+xml</dc:format><dc:type
         rdf:resource="http://purl.org/dc/dcmitype/StillImage" /><dc:title></dc:title></cc:Work></rdf:RDF></metadata><defs
   id="defs63" /><sodipodi:namedview
   inkscape:current-layer="Layer_1"
   inkscape:window-maximized="1"
   inkscape:window-y="-8"
   inkscape:window-x="-8"
   inkscape:cy="125"
   inkscape:cx="250"
   inkscape:zoom="2.03"
   inkscape:snap-grids="true"
   showgrid="false"
   id="namedview61"
   inkscape:window-height="997"
   inkscape:window-width="1680"
   inkscape:pageshadow="2"
   inkscape:pageopacity="0"
   guidetolerance="10"
   gridtolerance="10"
   objecttolerance="10"
   borderopacity="1"
   bordercolor="#666666"
   pagecolor="#ffffff" />
<g
   id="g58">
	<path
   d="m 15.019531,19.814453 c -7.326992,-0.009 -9.5946404,1.735563 -9.5566404,9.351563 0.308,63.422 0.362996,126.850434 -0.041016,190.273434 -0.056,8.846 2.617952,10.6351 10.960937,10.6211 156.472998,-0.246 312.944918,-0.18074 469.419918,-0.17774 h 9.61719 V 19.96875 c -3.464,0 -5.96103,-0.001 -8.45703,0 -157.314,0 -314.62836,0.0497 -471.943359,-0.154297 z m 424.177739,3.408203 h 53.79101 V 226.58789 h -53.79101 z m -323.72657,0.05078 c 1.30242,-0.03027 2.69554,0.05507 4.15821,0.248046 H 435.77539 V 226.61328 H 65.380859 V 23.521484 h 47.246091 c 0.89841,-0.138232 1.84559,-0.224852 2.84375,-0.248046 z M 8.7050781,23.5 H 61.878906 V 226.60938 H 8.7050781 Z M 255.28711,199.94727 c 0.63272,0.0418 0.0771,0.0348 0,0 z"
   style="fill-rule:evenodd"
   id="path2" />
	<path
   id="path4"
   d="M375.709,35.13c17.754,0,34.764,0,52.212,0c0,17.415,0,34.422,0,52.053   c-17.322,0-34.521,0-52.212,0C375.709,69.9,375.709,52.879,375.709,35.13z M415.098,59.985c0.075-7.291-5.966-13.482-13.221-13.546   c-7.154-0.062-13.51,6.162-13.576,13.299c-0.067,7.125,6.197,13.541,13.314,13.635C408.717,73.467,415.024,67.204,415.098,59.985z"
   clip-rule="evenodd"
   fill-rule="evenodd" />
	
	<path
   d="m 474.19336,47.552734 c -0.0366,-0.01414 -0.0657,0.03702 -0.10156,0.05664 0.009,0.09946 0.0105,0.159518 0.0215,0.263672 0.0361,-0.102165 0.068,-0.206184 0.10352,-0.308594 -0.008,-0.0033 -0.0153,-0.0086 -0.0234,-0.01172 z"
   style="fill-rule:evenodd"
   id="path8" />
	
	
	<path
   id="path14"
   d="M415.098,59.985c-0.073,7.219-6.381,13.481-13.482,13.387   c-7.117-0.094-13.382-6.509-13.314-13.635c0.066-7.137,6.422-13.361,13.576-13.299C409.132,46.503,415.173,52.695,415.098,59.985z"
   fill="#FFFFFF"
   clip-rule="evenodd"
   fill-rule="evenodd" />
	<path
   d="m 170.31836,149.74805 c -0.0115,0.073 -0.0327,0.14202 -0.0488,0.21289 0.12823,-0.035 0.25715,-0.0752 0.38672,-0.11719 -0.0999,-0.0283 -0.26191,-0.074 -0.33789,-0.0957 z m -41.66211,1.4414 c -0.18019,0.18243 -0.35265,0.35937 -0.54297,0.54883 0.1359,-0.0152 0.26945,-0.0378 0.40625,-0.0508 0.0374,-0.01 0.0758,-0.0158 0.11328,-0.0254 0.007,-0.16228 0.0164,-0.31149 0.0234,-0.47266 z m 126.63086,48.75782 c 0.63272,0.0418 0.0771,0.0348 0,0 z"
   id="text20" />
	<text
   id="text26"
   transform="matrix(1 0 0 1 299.1836 62.3135)"><tspan
     id="tspan22"
     font-size="18.8027"
     font-family="'MyriadHebrew-Regular'"
     y="0"
     x="0">Z-Wave</tspan><tspan
     id="tspan24"
     font-size="18.8027"
     font-family="'MyriadHebrew-Regular'"
     y="22.563"
     x="0">Button</tspan></text>
	
	
	<path
   d="m 24.400391,187.47852 c -0.380361,0.62754 0.415067,0.45079 1.458984,0.10546 -0.470308,-0.0742 -0.956149,-0.11288 -1.458984,-0.10546 z"
   style="fill-rule:evenodd"
   id="path32" />
	
	
	
	<path
   d="m 470.58789,146.43359 c -0.0157,0.0313 -0.0331,0.0642 -0.0469,0.0918 0.019,0.008 0.0406,0.0124 0.0586,0.0215 -0.002,-0.0268 -5.8e-4,-0.0714 -0.0117,-0.11329 z m 3.24023,0.60352 c -4.7e-4,0.005 4.8e-4,0.009 0,0.0137 -0.008,0.015 0.0476,0.0852 0.0859,0.11328 -0.0332,0.008 -0.0665,0.0153 -0.0996,0.0234 -0.008,0.096 -0.005,0.19288 -0.01,0.28906 0.10734,-0.11017 0.21774,-0.2149 0.32812,-0.32031 -0.10194,-0.0397 -0.20152,-0.0831 -0.30469,-0.11914 z m -3.21484,3.40625 c 0.0231,0.0174 0.047,0.0336 0.0703,0.0508 0.0574,0.0281 0.0886,0.0476 0.14258,0.0742 -0.0391,-0.036 -0.0411,-0.051 -0.0684,-0.0684 -0.0435,-0.0277 -0.0801,-0.0339 -0.14453,-0.0566 z m 8.50977,8.14453 c -0.008,0.003 -0.0157,0.005 -0.0234,0.008 0.002,0.007 0.002,0.016 0.004,0.0234 0.74526,0.0402 1.49181,0.0852 2.2246,0.004 -0.57233,-0.003 -1.14472,-0.003 -1.71679,-0.0234 -0.16224,-0.005 -0.32544,-0.007 -0.48828,-0.0117 z m -5.73828,0.0488 c -0.0104,0.0248 -0.0168,0.0475 -0.0274,0.0723 0.0247,-0.002 0.0495,-0.004 0.0742,-0.006 -0.0156,-0.0225 -0.0315,-0.0437 -0.0469,-0.0664 z m 9.07031,0.41406 c -0.0464,0.0943 -0.0806,0.23646 -0.10742,0.38867 0.0203,-0.0135 0.0403,-0.0294 0.0605,-0.043 0.0113,-0.0993 0.0353,-0.2456 0.0469,-0.3457 z"
   style="fill-rule:evenodd"
   id="path40" />
	<path
   d="m 470.12109,94.076172 c -0.11258,-0.0043 0.0307,0.0076 0.21289,0.01367 7.6e-4,-0.0032 0.001,-0.0065 0.002,-0.0098 -0.0716,-0.001 -0.14328,-0.0012 -0.21485,-0.0039 z m 18.83789,3.154297 c 0.33502,0.85287 0.34239,1.621908 0.0957,2.197265 0.057,0.03795 0.10759,0.08125 0.16211,0.121094 0.0213,-0.685417 0.043,-1.370598 0.0645,-2.054687 -0.10861,-0.08289 -0.21424,-0.178074 -0.32227,-0.263672 z"
   style="fill-rule:evenodd"
   id="path42" />
	<path
   d="m 486.56055,193.10938 c 0.005,0.031 0.007,0.063 0.0137,0.0937 0.006,0.0301 -0.0119,-0.0864 -0.0117,-0.0918 -6.8e-4,-6.3e-4 -0.001,-0.001 -0.002,-0.002 z m -17.74805,6.52148 c 0.09,0.45534 0.21177,0.88798 0.35156,1.30859 0.041,-0.11568 0.0827,-0.22744 0.16016,-0.42578 -0.0787,-0.15729 -0.04,-0.10457 -0.20117,-0.39844 -0.12732,-0.15526 -0.22319,-0.31917 -0.31055,-0.48437 z m 16.44336,0.0762 c -0.0844,0.0861 -0.14812,0.17699 -0.0488,0.25 0.005,0.17427 -0.1009,0.65117 0.0156,0.52149 0.0596,-0.0661 0.0516,-0.397 0.0332,-0.77149 z m -12.54102,1.34766 c -0.0742,-0.0448 0.0555,0.18755 0.13477,0.22265 0.1,0.0443 0.20651,0.0729 0.3125,0.10157 -0.14301,-0.11616 -0.28981,-0.22925 -0.44727,-0.32422 z m 3.79102,5.33789 c -0.28931,-9.9e-4 -0.6317,0.007 -0.95898,0.0137 0.75475,0.0983 1.557,0.11119 2.4121,0.01 -0.48392,-0.0132 -0.96803,-0.0306 -1.45312,-0.0234 z"
   style="fill-rule:evenodd"
   id="path44" />
	<path
   d="m 457.50195,47.486328 c 0.0315,0.146417 0.0502,0.295714 0.0762,0.44336 0.0532,-0.147298 0.10578,-0.294374 0.1543,-0.44336 z"
   id="text46" />
	
	
	
	
	
</g>
<ellipse
   ry="11.083744"
   rx="12.315271"
   cy="48.029556"
   cx="35.467979"
   id="path442"
   style="fill:#000000;fill-rule:evenodd;stroke:#000000" /><ellipse
   style="fill:#000000;fill-rule:evenodd;stroke:#000000"
   id="path442-8"
   cx="35.960594"
   cy="98.029564"
   rx="12.315271"
   ry="11.083744" /><ellipse
   style="fill:#000000;fill-rule:evenodd;stroke:#000000"
   id="path442-5"
   cx="466.99506"
   cy="148.76846"
   rx="12.315271"
   ry="11.083744" /><ellipse
   style="fill:#000000;fill-rule:evenodd;stroke:#000000"
   id="path442-6"
   cx="35.467979"
   cy="146.30542"
   rx="12.315271"
   ry="11.083744" /><ellipse
   style="fill:#000000;fill-rule:evenodd;stroke:#000000"
   id="path442-4"
   cx="34.975372"
   cy="197.04433"
   rx="12.315271"
   ry="11.083744" /><ellipse
   ry="11.083744"
   rx="12.315271"
   cy="99.014778"
   cx="466.50247"
   id="path442-5-7"
   style="fill:#000000;fill-rule:evenodd;stroke:#000000" /><ellipse
   ry="11.083744"
   rx="12.315271"
   cy="201.97044"
   cx="466.50247"
   id="path442-5-5"
   style="fill:#000000;fill-rule:evenodd;stroke:#000000" /><ellipse
   ry="11.083744"
   rx="12.315271"
   cy="50.2463"
   cx="465.02463"
   id="path442-5-4"
   style="fill:#000000;fill-rule:evenodd;stroke:#000000" /><path
   id="path616"
   d="m 397.98479,72.510585 c -1.24383,-0.383161 -3.32629,-1.633905 -4.62767,-2.779432 -7.32481,-6.447553 -5.92994,-17.187251 2.79878,-21.549045 3.44564,-1.721803 6.32933,-1.943422 9.81842,-0.75457 7.0249,2.393626 10.72066,10.619163 7.81059,17.383807 -1.45028,3.371261 -5.14088,6.722152 -8.50346,7.720729 -3.01784,0.896204 -4.33015,0.892339 -7.29666,-0.02149 z"
   style="fill:#0000ff;fill-rule:evenodd;stroke:#000000;stroke-width:0.492611" /></svg>
