<?xml version="1.0" encoding="UTF-8" standalone="no"?>
<svg
   xmlns:dc="http://purl.org/dc/elements/1.1/"
   xmlns:cc="http://creativecommons.org/ns#"
   xmlns:rdf="http://www.w3.org/1999/02/22-rdf-syntax-ns#"
   xmlns:svg="http://www.w3.org/2000/svg"
   xmlns="http://www.w3.org/2000/svg"
   xmlns:sodipodi="http://sodipodi.sourceforge.net/DTD/sodipodi-0.dtd"
   xmlns:inkscape="http://www.inkscape.org/namespaces/inkscape"
   version="1.1"
   x="0px"
   y="0px"
   viewBox="0 0 32 32"
   enable-background="new 0 0 32 32"
   xml:space="preserve"
   id="svg10"
   sodipodi:docname="icon.svg"
   inkscape:version="1.0 (4035a4fb49, 2020-05-01)"><metadata
   id="metadata16"><rdf:RDF><cc:Work
       rdf:about=""><dc:format>image/svg+xml</dc:format><dc:type
         rdf:resource="http://purl.org/dc/dcmitype/StillImage" /><dc:title /></cc:Work></rdf:RDF></metadata><defs
   id="defs14" /><sodipodi:namedview
   inkscape:document-rotation="0"
   pagecolor="#ffffff"
   bordercolor="#666666"
   borderopacity="1"
   objecttolerance="10"
   gridtolerance="10"
   guidetolerance="10"
   inkscape:pageopacity="0"
   inkscape:pageshadow="2"
   inkscape:window-width="1680"
   inkscape:window-height="997"
   id="namedview12"
   showgrid="false"
   inkscape:zoom="26.875"
   inkscape:cx="16"
   inkscape:cy="16"
   inkscape:window-x="-8"
   inkscape:window-y="-8"
   inkscape:window-maximized="1"
   inkscape:current-layer="Layer_2" />
<g
   id="Layer_1">
</g>
<g
   id="Layer_2">
	<polyline
   fill="none"
   stroke="#000000"
   stroke-width="1.5"
   stroke-miterlimit="10"
   points="8.009,22.147 8.009,0.889 23.99,0.889    23.99,31.092 8.009,31.092 8.009,26.147  "
   id="polyline3" />
	
	<circle
   fill="none"
   stroke="#000000"
   stroke-miterlimit="10"
   cx="16"
   cy="24.207"
   r="1.583"
   id="circle7" />
<ellipse
   style="fill:#ffffff;fill-opacity:0;fill-rule:evenodd;stroke:#000000;stroke-width:1.22181;stroke-linejoin:round;stroke-miterlimit:4;stroke-dasharray:none"
   id="path841"
   cx="15.945348"
   cy="10.959302"
   rx="5.6390958"
   ry="5.6390963" /><ellipse
   id="circle5"
   cy="10.979929"
   cx="13.301728"
   rx="0.76067311"
   ry="0.75530869"
   style="stroke-width:0.812418" /><ellipse
   id="circle7-4"
   cy="10.979929"
   cx="18.763412"
   rx="0.76067311"
   ry="0.75530869"
   style="stroke-width:0.812418" /><polyline
   id="polyline9"
   points="16.589,2.991 16.589,4.227 15.43,4.231 15.429,2.968   "
   stroke-miterlimit="10"
   stroke="#000000"
   fill="none"
   transform="matrix(0.81529805,0,0,0.80954838,2.9751631,3.0455455)" /><polyline
   id="polyline11"
   points="16.589,16.554 16.589,15.359 15.43,15.355 15.429,16.555       "
   stroke-miterlimit="10"
   stroke="#000000"
   fill="none"
   transform="matrix(0.81529805,0,0,0.80954838,2.9751631,3.0455455)" /><path
   id="path13"
   d="m 20.740508,8.0817459 -0.0212,2.0068701 c -8.15e-4,0.09067 0.07256,0.164339 0.163875,0.164339 h 0.635931"
   stroke-miterlimit="10"
   stroke="#000000"
   fill="none"
   style="stroke-width:0.812418" /><path
   id="path15"
   d="m 21.519116,11.679379 h -0.648161 c -0.09132,0 -0.16469,0.07448 -0.163875,0.164338 l 0.02038,2.004442"
   stroke-miterlimit="10"
   stroke="#000000"
   fill="none"
   style="stroke-width:0.812418" /><path
   id="path17"
   d="m 11.36458,13.97202 0.0212,-2.127493 c 8.13e-4,-0.09067 -0.07256,-0.164338 -0.163877,-0.164338 h -0.702787"
   stroke-miterlimit="10"
   stroke="#000000"
   fill="none"
   style="stroke-width:0.812418" /><path
   id="path19"
   d="m 10.519116,10.252955 h 0.689742 c 0.09132,0 0.16469,-0.07367 0.163875,-0.164339 l -0.02038,-2.1355883"
   stroke-miterlimit="10"
   stroke="#000000"
   fill="none"
   style="stroke-width:0.812418" /></g>
</svg>
